<?xml version="1.0" encoding="utf-8"?>
<!-- Generator: Adobe Illustrator 25.2.0, SVG Export Plug-In . SVG Version: 6.00 Build 0)  -->
<svg version="1.1" id="Layer_1" xmlns="http://www.w3.org/2000/svg" xmlns:xlink="http://www.w3.org/1999/xlink" x="0px" y="0px"
	 viewBox="0 0 149.32 145.48" style="enable-background:new 0 0 149.32 145.48;" xml:space="preserve">
<style type="text/css">
	.st0{fill:#075554;}
</style>
<path class="st0" d="M142.5,85.21c-8.65-1.02-17.26,0.37-24.49,4.08l-0.19,0.1l-0.18,0.11c-0.04,0.03-0.08,0.05-0.13,0.08
	l-0.06,0.03c-6.23,3.23-14.02,4.02-21.74,2.26c-1.54-0.35-3.1,0.52-3.57,2.04l-1.58,5.15c-0.51,1.67,0.51,3.41,2.21,3.81
	c3.64,0.86,7.31,1.29,10.93,1.29c6.75,0,13.28-1.49,18.96-4.42c0.29-0.15,0.54-0.29,0.73-0.41c0.5-0.25,1.01-0.49,1.53-0.72
	c1.08-0.46,2.15,0.6,1.79,1.65c-4.3,8.43-10.51,15.73-18.05,21.33c-2.71,2.01-6.09,2.91-9.44,2.48
	c-14.31-1.83-25.98-6.57-34.76-14.14c-4.2-3.62-7.15-7.33-10.27-11.25c-3.43-4.3-6.94-8.72-12.09-12.99
	c-1.72-1.43-2.87-3.42-3.28-5.62c-0.28-1.53-0.64-3.1-1.09-4.73c0,0,0,0,0,0c-0.64-5.56-0.5-10.55,0.43-14.92
	c0.71-3.34,1.78-5.89,2.92-8.6c1.78-4.22,3.79-9,4.32-16.67c0.28-4.08,0.11-8.36-0.51-12.79c-0.3-2.15,0.85-4.23,2.83-5.12
	c7.58-3.4,15.97-5.29,24.8-5.29c26.37,0,48.87,16.87,57.27,40.39c0.84,2.35,3.05,3.93,5.54,3.93h3.63c1.98,0,3.41-1.91,2.85-3.81
	c-3.5-12.03-10.13-23.01-19.48-31.94C108.82,7.61,90.73,0.45,72.04,0.57C52.94,0.69,35,8.18,21.48,21.7
	C7.85,35.34,0.34,53.46,0.34,72.74c0,19.28,7.51,37.4,21.14,51.03c13.54,13.53,31.5,21.03,50.63,21.14
	c18.86,0.1,37.09-7.21,50.62-20.33c7.38-7.16,13.04-15.61,16.75-24.84h0.02c0.81-2,2.96-3.11,5.07-2.66
	c0.02,0.01,0.05,0.01,0.07,0.02c1.74,0.38,3.49-0.64,4.01-2.34c0.22-0.73,0.33-1.47,0.33-2.19
	C148.98,88.93,146.31,85.66,142.5,85.21z M32.14,27.33c0.71-0.64,1.84-0.17,1.91,0.78c0.14,2.15,0.14,4.24,0,6.25
	c-0.4,5.79-1.81,9.15-3.45,13.05c-0.69,1.64-1.44,3.41-2.12,5.43c-0.36,1.06-1.75,1.31-2.46,0.45c-1.54-1.89-3.2-3.72-4.98-5.5
	c-1.62-1.61-1.94-4.13-0.77-6.09C23.47,36.32,27.48,31.47,32.14,27.33z M13.2,59.37c0.26-1.15,1.72-1.52,2.5-0.63
	c3.5,3.96,6.32,8.21,8.44,12.69c0.44,0.93,0.83,1.84,1.18,2.72c0.29,0.72-0.43,1.44-1.16,1.16c-2.85-1.1-5.81-2.02-8.86-2.76
	c-2.12-0.51-3.57-2.48-3.4-4.65C12.15,64.98,12.58,62.14,13.2,59.37z M13.3,86.53c-0.32-1.4,0.99-2.63,2.36-2.22
	c4.12,1.24,8.73,3.64,11.21,5.01c1.13,0.63,1.88,1.77,2.01,3.06c0.42,4.08,0.97,8.36,2.42,13.27c1.64,5.55,4.16,10.95,7.56,16.17
	c0.39,0.6-0.33,1.29-0.91,0.89C25.74,114.25,16.77,101.43,13.3,86.53z M72.51,133.53c-2.07,0-4.12-0.1-6.14-0.31
	c-1.26-0.13-2.46-0.65-3.43-1.47c-7.92-6.75-13.79-13.88-17.54-21.29c-0.63-1.25-1.42-3.26-2.09-5.04
	c-0.27-0.72,0.68-1.25,1.16-0.65c0.27,0.34,0.54,0.67,0.81,1.01c3.31,4.16,6.74,8.47,11.74,12.78c6.52,5.62,14.27,9.93,23.17,12.89
	c0.84,0.28,0.72,1.51-0.16,1.62C77.57,133.37,75.06,133.53,72.51,133.53z"/>
</svg>
